<?xml version="1.0" encoding="UTF-8"?>
<svg xmlns="http://www.w3.org/2000/svg" xmlns:xlink="http://www.w3.org/1999/xlink" viewBox="0 0 100 100" preserveAspectRatio="xMidYMid" width="208" height="208" style="shape-rendering: auto; display: block; background: transparent;">
  <g>
    <g transform="rotate(0 50 50)">
      <rect fill="#323232" height="10" width="10" ry="5" rx="5" y="12" x="45"></rect>
    </g>
    <g transform="rotate(40 50 50)">
      <rect fill="#323232" height="10" width="10" ry="5" rx="5" y="12" x="45"></rect>
    </g>
    <g transform="rotate(80 50 50)">
      <rect fill="#323232" height="10" width="10" ry="5" rx="5" y="12" x="45"></rect>
    </g>
    <g transform="rotate(120 50 50)">
      <rect fill="#323232" height="10" width="10" ry="5" rx="5" y="12" x="45"></rect>
    </g>
    <g transform="rotate(160 50 50)">
      <rect fill="#323232" height="10" width="10" ry="5" rx="5" y="12" x="45"></rect>
    </g>
    <g transform="rotate(200 50 50)">
      <rect fill="#323232" height="10" width="10" ry="5" rx="5" y="12" x="45"></rect>
    </g>
    <g transform="rotate(240 50 50)">
      <rect fill="#323232" height="10" width="10" ry="5" rx="5" y="12" x="45"></rect>
    </g>
    <g transform="rotate(280 50 50)">
      <rect fill="#323232" height="10" width="10" ry="5" rx="5" y="12" x="45"></rect>
    </g>
    <g transform="rotate(320 50 50)">
      <rect fill="#323232" height="10" width="10" ry="5" rx="5" y="12" x="45"></rect>
    </g>
    <g></g>
  </g>
  <!-- [ldio] generated by https://loading.io -->
</svg>
