<?xml version="1.0" encoding="UTF-8"?>
<svg xmlns="http://www.w3.org/2000/svg" width="70" height="60" viewBox="0 0 70 60" fill="none">
  <path fill-rule="evenodd" clip-rule="evenodd" d="M56.0092 35.5472L57.4284 49.4106L58.6449 49.2976L58.3915 44.2817L58.9997 49.2647L65.0821 48.6997C67.211 48.395 69.8873 46.2114 69.4412 43.1645C68.9952 40.1176 68.7823 38.611 68.7316 38.2386C68.5964 36.8337 67.1096 34.3284 63.156 34.6839C61.3194 34.849 58.5765 35.2212 56.9215 35.434L57.4284 42.6059L56.6174 35.4728C56.3827 35.5025 56.1774 35.5278 56.0092 35.5472ZM61.4327 45.5004L60.6724 38.4418C60.8582 38.4079 61.5645 38.3199 62.9026 38.2386C64.2407 38.1574 64.5753 39.1188 64.5753 39.6097C64.6429 40.3207 64.8084 42.0777 64.9301 43.4184C65.0517 44.759 64.0346 45.2634 63.5108 45.3481L61.4327 45.5004Z" fill="white"></path>
  <path d="M45.5676 34.9886L45.4663 49.0551H55.2995V45.602H49.9774V43.7231H54.3365V40.6254H49.9774V38.4418H54.6913L55.1564 35.8011L51.1939 35.5472H55.2012L55.2995 34.9886H45.5676Z" fill="white"></path>
  <path fill-rule="evenodd" clip-rule="evenodd" d="M32.1356 48.0343L32.5415 34.1769L33.8589 34.2156L33.7576 38.3402L34.1124 34.2231L40.3946 34.4078C41.6622 34.4112 44.2661 35.5377 44.0384 39.8493C43.908 42.3173 42.8972 43.1636 41.7661 43.8246L43.8443 48.4458L38.9276 48.1669L37.7636 44.0205C37.5747 44.0058 37.3914 43.9895 37.2156 43.9739L37.2153 43.9739C37.0144 43.956 36.8234 43.9391 36.6448 43.9262V48.1669L32.1356 48.0343ZM36.8557 37.5044L36.7444 40.473C37.0131 40.5317 37.8376 40.5458 38.5683 40.5267C39.2991 40.5075 39.4371 40.2982 39.452 39.7906C39.4575 39.6014 39.4653 39.4876 39.4743 39.3582C39.4861 39.1867 39.4998 38.9873 39.5127 38.5477C39.538 37.6848 39.237 37.5744 38.6796 37.558L36.8557 37.5044Z" fill="white"></path>
  <path d="M30.1588 35.141V49.0044H26.6107L26.2559 42.1996V49.0044H25.6983V35.141H29.2464L29.3985 40.2699L29.5505 35.141H30.1588Z" fill="white"></path>
  <path fill-rule="evenodd" clip-rule="evenodd" d="M12.7731 49.0044V35.141H20.6296C21.8968 35.1071 24.5325 36.1566 24.4311 40.473C24.2904 46.4645 19.6666 45.7035 17.2843 45.602V49.0044H12.7731ZM17.1829 38.3402V42.1996C17.4532 42.2504 18.2777 42.2402 19.0076 42.1996C19.7375 42.159 19.8693 41.9457 19.8693 41.4379V39.3051C19.8693 38.4418 19.5652 38.3402 19.0076 38.3402H17.1829Z" fill="white"></path>
  <path d="M10.317 37.9527C9.30504 37.8219 6.78311 37.6619 4.79087 38.068V39.1755C8.40704 39.2554 12.1669 39.8215 11.9535 43.767C11.74 47.7124 10.5779 49.3736 0.474339 48.4507L0.782663 44.7591C2.06339 44.9744 5.21778 45.1744 7.1863 44.7591V43.767C4.34025 43.5593 4.2339e-07 44.1361 0 38.8525C-4.2339e-07 33.5689 5.26521 34.0072 10.6727 34.3764L10.6219 34.887C6.48794 34.5823 5.17008 34.7347 5.17008 34.7347C8.10992 34.8363 9.42779 34.9886 10.5967 35.141L10.317 37.9527Z" fill="white"></path>
  <path d="M23.2653 8.58211C21.1027 8.29434 15.713 7.94226 11.4553 8.83601V11.2735C19.1835 11.4493 27.2189 12.6954 26.7627 21.3791C26.3065 30.0628 23.8229 33.719 2.2302 31.6878L2.88913 23.5627C5.62623 24.0367 12.3676 24.4768 16.5746 23.5627V21.3791C10.4922 20.9221 1.21647 22.1916 1.21647 10.5626C1.21647 -1.06642 12.469 -0.101563 24.0256 0.710944L23.9471 1.52345C21.4758 1.17211 16.7267 0.964853 13.7869 1.26954C17.9432 1.32032 20.5789 1.62501 23.8785 2.2344L23.2653 8.58211Z" fill="white"></path>
  <path d="M28.5875 1.98049V32.094H38.1166V1.98049H32.237C32.1435 3.65415 31.9964 4.55362 31.578 6.09381C31.7366 4.48591 31.7999 3.58508 31.8315 1.98049H31.1218C30.8954 5.85323 30.6665 9.69667 30.0067 13.5587C30.3105 9.7036 30.4954 5.84687 30.5643 1.98049H28.5875Z" fill="white"></path>
  <path d="M39.9414 30.0628L42.1716 0L50.9912 0.710944L57.8846 12.4923L58.138 15.0314L59.3545 1.42189L66.6028 1.84678L66.1973 9.4454L67.0082 1.87055L67.6672 1.90917L66.6028 16.047L68.2754 1.94483L68.8837 1.98049L66.6028 32.094L57.3777 31.6878L50.8391 20.008L50.5857 17.215L49.5212 30.8753L48.9383 30.8258L49.2171 23.5627L48.3554 30.7764L39.9414 30.0628Z" fill="white"></path>
  <path d="M42.712 51.658C42.7382 51.6711 42.7774 51.6777 42.8298 51.6777C42.9737 51.6777 43.0456 51.5828 43.0456 51.3931V48.3409C43.0456 47.9549 43.1306 47.6801 43.3007 47.5165C43.4773 47.3529 43.7684 47.2711 44.1739 47.2711C44.586 47.2711 44.8771 47.3562 45.0471 47.5263C45.2172 47.6964 45.3022 47.9876 45.3022 48.3998C45.3022 48.5568 45.2924 48.7891 45.2728 49.0966C45.2532 49.3975 45.2303 49.741 45.2041 50.127C45.1845 50.5131 45.1649 50.9285 45.1452 51.3734C45.1256 51.8118 45.1158 52.2469 45.1158 52.6787C45.1158 53.3461 45.1616 53.9218 45.2532 54.406C45.3447 54.8901 45.4756 55.2925 45.6456 55.6131C45.8157 55.9272 46.0185 56.1627 46.2539 56.3197C46.4894 56.4702 46.7543 56.5454 47.0486 56.5454C47.2122 56.5454 47.3593 56.5258 47.4902 56.4866C47.6275 56.4408 47.7878 56.4179 47.9709 56.4179C48.1017 56.4179 48.2097 56.4866 48.2947 56.624C48.3863 56.7548 48.432 56.9151 48.432 57.1048C48.432 57.275 48.3797 57.4353 48.2751 57.5857C48.1769 57.7362 48.0396 57.8671 47.863 57.9783C47.6929 58.0895 47.4934 58.1779 47.2645 58.2433C47.0356 58.3022 46.7968 58.3316 46.5483 58.3316C46.0119 58.3316 45.5213 58.168 45.0766 57.8409C44.6318 57.5072 44.2982 57.0002 44.0758 56.3197C44.0562 56.215 44.0235 56.1627 43.9777 56.1627C43.9254 56.1627 43.8828 56.215 43.8501 56.3197C43.6735 56.7973 43.4413 57.2292 43.1535 57.6152C42.8723 57.9947 42.542 58.3218 42.1626 58.5966C41.7898 58.8648 41.3777 59.0709 40.9264 59.2149C40.4816 59.3588 40.0106 59.4308 39.5135 59.4308C38.9903 59.4308 38.5095 59.3425 38.0713 59.1658C37.6396 58.9957 37.2667 58.7569 36.9528 58.4494C36.6388 58.1353 36.3935 57.7689 36.2169 57.3502C36.0403 56.9249 35.952 56.4669 35.952 55.9762C35.952 55.3481 36.0828 54.756 36.3445 54.1999C36.6061 53.6437 36.9593 53.1596 37.4041 52.7474C37.8554 52.3287 38.3787 51.9983 38.9739 51.7562C39.5691 51.5141 40.2036 51.3931 40.8773 51.3931C41.152 51.3931 41.4431 51.416 41.7505 51.4617C42.0579 51.501 42.3784 51.5664 42.712 51.658ZM39.8962 57.6642C40.269 57.6642 40.5993 57.5825 40.8871 57.4189C41.1815 57.2553 41.4398 57.0492 41.6622 56.8006C41.8911 56.5454 42.0841 56.2674 42.2411 55.9664C42.3981 55.6589 42.5256 55.3612 42.6237 55.0733C42.7218 54.7855 42.7938 54.527 42.8396 54.298C42.8854 54.069 42.9083 53.9055 42.9083 53.8073C42.9083 53.7353 42.8886 53.6732 42.8494 53.6208C42.8101 53.562 42.7513 53.5162 42.6728 53.4835C42.4962 53.4377 42.313 53.3984 42.1234 53.3657C41.9337 53.3264 41.7472 53.2937 41.5641 53.2675C41.381 53.2414 41.2044 53.2217 41.0343 53.2087C40.8708 53.1956 40.7203 53.189 40.583 53.189C40.1905 53.189 39.834 53.2479 39.5135 53.3657C39.193 53.4835 38.9183 53.6503 38.6894 53.8662C38.467 54.0821 38.2937 54.3405 38.1694 54.6415C38.0451 54.9359 37.983 55.2598 37.983 55.6131C37.983 55.9272 38.0288 56.2118 38.1203 56.4669C38.2184 56.7156 38.3493 56.9282 38.5128 57.1048C38.6828 57.2815 38.8856 57.4189 39.1211 57.517C39.3566 57.6152 39.6149 57.6642 39.8962 57.6642Z" fill="#FFC700"></path>
  <path d="M49.3936 48.8218C49.2039 48.8218 49.024 48.7956 48.8539 48.7433C48.6904 48.6844 48.5465 48.6059 48.4222 48.5077C48.3045 48.403 48.2097 48.282 48.1377 48.1446C48.0658 48.0072 48.0298 47.8567 48.0298 47.6931C48.0298 47.4184 48.1377 47.1959 48.3535 47.0258C48.5759 46.8557 48.8703 46.7706 49.2366 46.7706C49.4066 46.7706 49.5702 46.8033 49.7271 46.8688C49.8841 46.9276 50.0215 47.0094 50.1392 47.1141C50.2635 47.2188 50.3616 47.3431 50.4336 47.4871C50.5055 47.6244 50.5415 47.7684 50.5415 47.9189C50.5415 48.2002 50.4368 48.4227 50.2275 48.5862C50.0247 48.7433 49.7468 48.8218 49.3936 48.8218ZM48.0494 51.8151C48.0494 51.5861 48.1475 51.3996 48.3437 51.2557C48.5465 51.1052 48.8114 51.0299 49.1385 51.0299C49.7271 51.0299 50.0411 51.2328 50.0803 51.6384C50.1065 51.9197 50.1327 52.2371 50.1588 52.5904C50.1915 52.9437 50.221 53.3199 50.2471 53.719C50.2798 54.1116 50.306 54.5205 50.3256 54.9457C50.3518 55.3645 50.3747 55.7799 50.3943 56.1921C50.4139 56.5978 50.4303 56.9903 50.4434 57.3698C50.4564 57.7493 50.463 58.0961 50.463 58.4101C50.463 58.7373 50.3453 58.9826 50.1098 59.1462C49.8808 59.3097 49.544 59.3915 49.0992 59.3915C48.8964 59.3915 48.7362 59.3425 48.6185 59.2443C48.5073 59.1527 48.4517 59.0153 48.4517 58.8321C48.4517 57.9292 48.4288 57.0852 48.383 56.3001C48.3437 55.5084 48.298 54.8051 48.2456 54.1901C48.1998 53.575 48.1541 53.0647 48.1083 52.6591C48.069 52.2469 48.0494 51.9655 48.0494 51.8151Z" fill="#FFC700"></path>
  <path d="M52.4056 55.5739C52.4056 55.4626 52.4187 55.3383 52.4449 55.2009C52.471 55.0635 52.4841 54.913 52.4841 54.7495C52.4841 54.6382 52.4351 54.5532 52.337 54.4943C52.2454 54.4354 52.1407 54.37 52.023 54.298C51.9053 54.226 51.7973 54.1345 51.6992 54.0232C51.6076 53.912 51.5619 53.7517 51.5619 53.5423C51.5619 53.3919 51.6011 53.2414 51.6796 53.0909C51.7646 52.9404 51.8856 52.803 52.0426 52.6787C52.4285 52.3908 52.8275 52.1324 53.2396 51.9034C53.6582 51.6744 54.0736 51.4814 54.4856 51.3244C54.9043 51.1673 55.3163 51.0463 55.7219 50.9612C56.1274 50.8762 56.5166 50.8337 56.8894 50.8337C57.5173 50.8337 58.106 50.9514 58.6555 51.187C59.2114 51.416 59.6922 51.7333 60.0977 52.1389C60.5098 52.538 60.8336 53.0091 61.069 53.5521C61.3111 54.0887 61.4321 54.6644 61.4321 55.2794C61.4321 55.8814 61.3045 56.4538 61.0494 56.9969C60.8009 57.5334 60.464 58.0045 60.0389 58.4101C59.6137 58.8158 59.1133 59.1364 58.5377 59.3719C57.9687 59.614 57.3669 59.735 56.7324 59.735C56.1111 59.735 55.5355 59.6303 55.0056 59.421C54.4758 59.2116 54.018 58.9237 53.6321 58.5573C53.2461 58.1844 52.9453 57.746 52.7294 57.2422C52.5136 56.7319 52.4056 56.1758 52.4056 55.5739ZM56.9483 57.9685C57.223 57.9685 57.5075 57.9129 57.8019 57.8016C58.0962 57.6904 58.3644 57.5301 58.6064 57.3208C58.855 57.1048 59.0577 56.8431 59.2147 56.5356C59.3782 56.2281 59.46 55.8814 59.46 55.4953C59.46 55.1028 59.388 54.7364 59.2441 54.3962C59.1002 54.0559 58.9007 53.7615 58.6456 53.5129C58.3971 53.2577 58.0995 53.0582 57.7528 52.9142C57.4127 52.7703 57.0431 52.6983 56.6441 52.6983C55.9181 52.6983 55.3621 52.8881 54.9762 53.2675C54.5903 53.6405 54.3973 54.2162 54.3973 54.9948C54.3973 55.4201 54.4595 55.8159 54.5837 56.1823C54.7146 56.5422 54.8944 56.8562 55.1234 57.1245C55.3523 57.3862 55.6205 57.5923 55.9279 57.7428C56.2419 57.8932 56.582 57.9685 56.9483 57.9685Z" fill="#FFC700"></path>
  <path d="M27.1512 51.8249C27.1055 51.7333 27.0401 51.6613 26.955 51.609C26.9015 51.5719 26.8364 51.5465 26.7596 51.5328C26.7593 51.5353 26.7591 51.5378 26.7588 51.5403C26.7065 51.9852 26.6574 52.3974 26.6116 52.7768C26.5927 52.9594 26.5754 53.1359 26.5595 53.3064C26.6666 53.3027 26.7624 53.2767 26.8471 53.2283C26.9387 53.1759 27.0139 53.1105 27.0728 53.032C27.1382 52.947 27.1872 52.8521 27.2199 52.7474C27.2592 52.6427 27.2788 52.5413 27.2788 52.4432C27.2788 52.3319 27.269 52.224 27.2494 52.1193C27.2363 52.0081 27.2036 51.9099 27.1512 51.8249Z" fill="#FFC700"></path>
  <path d="M19.7143 46.7706C19.518 46.908 19.4199 47.1501 19.4199 47.4969C19.4199 47.5296 19.4395 47.6473 19.4788 47.8502C19.518 48.053 19.5704 48.3311 19.6358 48.6844C19.7077 49.0377 19.7895 49.463 19.881 49.9602C19.9792 50.4509 20.0805 50.9972 20.1852 51.5991C20.1983 51.6384 20.2048 51.6777 20.2048 51.7169V51.8151C20.2048 51.9655 20.1656 52.08 20.0871 52.1585C20.0151 52.2305 19.9137 52.2829 19.7829 52.3156C19.2073 52.4203 18.6906 52.5348 18.2327 52.6591C17.7749 52.7768 17.4086 52.8913 17.1339 53.0026C17.0161 53.0549 16.9246 53.1236 16.8592 53.2087C16.7872 53.2872 16.7349 53.3755 16.7022 53.4736C16.6629 53.5652 16.6368 53.6601 16.6237 53.7582C16.6106 53.8498 16.6041 53.9316 16.6041 54.0036C16.6041 54.1131 16.6145 54.2131 16.6355 54.3036C16.658 54.3278 16.6802 54.3521 16.7022 54.3765C16.8033 54.4842 16.8973 54.5942 16.9844 54.7063C17.004 54.7089 17.0244 54.7102 17.0456 54.7102C17.1568 54.7102 17.281 54.7004 17.4184 54.6808C17.5558 54.6546 17.7127 54.6121 17.8893 54.5532C18.2033 54.4485 18.5402 54.3504 18.8999 54.2588C19.2597 54.1672 19.6423 54.0756 20.0478 53.984C20.0675 53.984 20.0904 53.9807 20.1165 53.9742C20.1427 53.9676 20.1656 53.9643 20.1852 53.9643C20.4207 53.9643 20.5678 54.105 20.6267 54.3863C20.7379 55.1649 20.836 55.9468 20.921 56.7319C21.0061 57.5105 21.0682 58.2858 21.1075 59.0578C21.1205 59.2999 21.186 59.4799 21.3037 59.5976C21.4214 59.7154 21.6046 59.7743 21.8531 59.7743C22.1148 59.7743 22.3306 59.7514 22.5007 59.7056C22.6773 59.6663 22.8179 59.5944 22.9226 59.4897C23.0272 59.3915 23.1024 59.2607 23.1482 59.0971C23.194 58.9401 23.2169 58.7438 23.2169 58.5083C23.2169 58.4232 23.2005 58.2531 23.1678 57.9979C23.1417 57.7362 23.1024 57.4124 23.0501 57.0263C23.0043 56.6338 22.9455 56.1889 22.8735 55.6916C22.8081 55.1944 22.7361 54.6611 22.6577 54.0919C22.6577 54.0723 22.6544 54.0494 22.6478 54.0232C22.6413 53.9905 22.638 53.9643 22.638 53.9447C22.638 53.6895 22.7852 53.5423 23.0795 53.5031C23.6551 53.4442 24.2307 53.3984 24.8063 53.3657C25.3885 53.3264 25.9641 53.3068 26.5331 53.3068H26.5333C26.5421 53.3068 26.5509 53.3066 26.5595 53.3064C26.5754 53.1359 26.5927 52.9594 26.6116 52.7768C26.6574 52.3974 26.7065 51.9852 26.7588 51.5403C26.7591 51.5378 26.7593 51.5353 26.7596 51.5328C26.7563 51.5322 26.7529 51.5316 26.7496 51.5311C26.7071 51.5241 26.6611 51.5206 26.6116 51.5206C26.4285 51.5206 26.2159 51.5305 25.9739 51.5501C25.7384 51.5632 25.4866 51.5828 25.2184 51.609C24.9568 51.6286 24.6919 51.6515 24.4237 51.6777C24.1621 51.7038 23.9168 51.73 23.6878 51.7562C23.4589 51.7758 23.2594 51.7954 23.0894 51.8151C22.9258 51.8281 22.8081 51.8347 22.7361 51.8347C22.468 51.8347 22.3143 51.6875 22.275 51.3931C22.1704 50.7388 22.069 50.0878 21.9709 49.4401C21.8793 48.7923 21.7943 48.1642 21.7158 47.5557C21.6831 47.3595 21.6405 47.1992 21.5882 47.0749C21.5424 46.944 21.477 46.8393 21.392 46.7608C21.3135 46.6823 21.2154 46.63 21.0976 46.6038C20.9865 46.5711 20.8491 46.5547 20.6856 46.5547C20.2343 46.5547 19.9105 46.6267 19.7143 46.7706Z" fill="#FFC700"></path>
  <path fill-rule="evenodd" clip-rule="evenodd" d="M11.4335 55.9075C11.2438 55.5673 11.149 55.2009 11.149 54.8084C11.149 54.6055 11.0737 54.442 10.9233 54.3176C10.7794 54.1868 10.6126 54.0919 10.4229 54.033C10.2594 53.9807 10.1449 53.9513 10.0795 53.9447C10.0141 53.9316 9.95524 53.9251 9.90291 53.9251C9.73939 53.9251 9.6053 53.9676 9.50065 54.0527C9.39599 54.1312 9.31423 54.2359 9.25536 54.3667C9.1965 54.491 9.15398 54.6382 9.12782 54.8084C9.10819 54.9719 9.09838 55.1355 9.09838 55.2991C9.09838 55.6851 9.16706 56.0547 9.30442 56.408C9.44832 56.7614 9.64128 57.0918 9.88329 57.3993C10.1253 57.7002 10.4098 57.975 10.7369 58.2237C11.0705 58.4657 11.4269 58.6718 11.8063 58.8419C12.1857 59.0186 12.5781 59.1527 12.9837 59.2443C13.3957 59.3425 13.8013 59.3915 14.2003 59.3915C14.5927 59.3915 14.995 59.3294 15.4071 59.2051C15.8191 59.0873 16.1953 58.9074 16.5354 58.6653C16.8755 58.4232 17.1535 58.1222 17.3693 57.7624C17.5852 57.4025 17.6931 56.9871 17.6931 56.516C17.6931 56.13 17.6015 55.757 17.4184 55.3972C17.3011 55.1583 17.1565 54.928 16.9844 54.7063C16.8646 54.6905 16.7738 54.6264 16.712 54.5139C16.6789 54.4507 16.6534 54.3806 16.6355 54.3036C16.3573 54.0036 16.0427 53.7204 15.6916 53.454C15.3122 53.1596 14.923 52.8848 14.5241 52.6296C14.1316 52.3679 13.7457 52.1258 13.3663 51.9034C12.9869 51.6744 12.6468 51.465 12.3459 51.2753C12.0516 51.0855 11.8129 50.9122 11.6297 50.7551C11.4531 50.5981 11.3648 50.4574 11.3648 50.3331C11.3648 50.2088 11.4073 50.1074 11.4923 50.0289C11.5774 49.9438 11.6886 49.8817 11.8259 49.8424C11.9633 49.7966 12.1137 49.7672 12.2773 49.7541C12.4473 49.7345 12.6141 49.7247 12.7776 49.7247C13.0785 49.7247 13.3761 49.7574 13.6705 49.8228C13.9713 49.8817 14.2559 49.9111 14.5241 49.9111C14.7137 49.9111 14.8674 49.8653 14.9852 49.7737C15.1095 49.6756 15.2174 49.5316 15.309 49.3419C15.4005 49.1391 15.4561 48.9951 15.4758 48.9101C15.4954 48.8185 15.5052 48.7433 15.5052 48.6844C15.5052 48.5012 15.43 48.3605 15.2795 48.2624C15.1291 48.1642 14.9394 48.0923 14.7105 48.0465C14.4881 47.9941 14.2461 47.9647 13.9844 47.9581C13.7293 47.945 13.4939 47.9385 13.278 47.9385C12.9837 47.9385 12.673 47.9647 12.3459 48.017C12.0254 48.0628 11.7049 48.1348 11.3844 48.2329C11.0639 48.3311 10.7565 48.4521 10.4622 48.596C10.1678 48.74 9.90945 48.9035 9.68706 49.0867C9.46467 49.2699 9.2848 49.476 9.14744 49.705C9.01662 49.9275 8.95121 50.1696 8.95121 50.4313C8.95121 50.7061 9.04605 50.9809 9.23574 51.2557C9.43197 51.5239 9.68706 51.7922 10.001 52.0604C10.315 52.3221 10.6747 52.5871 11.0803 52.8553C11.4858 53.1171 11.8979 53.3788 12.3165 53.6405C12.7351 53.9022 13.1472 54.1672 13.5527 54.4354C13.9583 54.6971 14.318 54.9621 14.632 55.2304C14.9459 55.4921 15.1978 55.757 15.3875 56.0253C15.5837 56.2935 15.6818 56.5651 15.6818 56.8399C15.6818 56.9838 15.6458 57.1048 15.5739 57.203C15.5019 57.2946 15.4103 57.3698 15.2991 57.4287C15.188 57.4876 15.0637 57.5301 14.9263 57.5563C14.789 57.5759 14.6549 57.5857 14.5241 57.5857C14.0989 57.5857 13.6835 57.517 13.278 57.3796C12.8725 57.2357 12.5127 57.0394 12.1988 56.7908C11.8848 56.5356 11.6297 56.2412 11.4335 55.9075ZM28.7701 55.3579C28.7701 56.2347 28.9042 56.9118 29.1724 57.3895C29.4406 57.8671 29.8297 58.1059 30.3399 58.1059C30.6604 58.1059 30.9548 58.011 31.223 57.8213C31.4977 57.6315 31.7331 57.3666 31.9294 57.0263C32.1256 56.6861 32.276 56.2837 32.3807 55.8192C32.4919 55.3481 32.5475 54.8378 32.5475 54.2882C32.5475 53.9545 32.5344 53.6666 32.5082 53.4246C32.4821 53.1759 32.4526 52.9568 32.4199 52.767C32.3938 52.5707 32.3676 52.3974 32.3414 52.2469C32.3153 52.0964 32.3022 51.9525 32.3022 51.8151C32.3022 51.6057 32.3905 51.4552 32.5671 51.3636C32.7437 51.2655 33.025 51.2164 33.4109 51.2164C33.9014 51.2164 34.2808 51.3276 34.549 51.5501C34.8237 51.7725 34.9611 52.0964 34.9611 52.5217C34.9611 53.6797 34.8466 54.72 34.6177 55.6425C34.3953 56.5651 34.0715 57.3502 33.6464 57.9979C33.2277 58.6391 32.7175 59.1331 32.1158 59.4799C31.514 59.8266 30.8403 60 30.0946 60C29.5648 60 29.0743 59.8888 28.6229 59.6663C28.1782 59.4504 27.7923 59.1462 27.4652 58.7536C27.1447 58.3545 26.8929 57.8834 26.7097 57.3404C26.5266 56.7908 26.435 56.1889 26.435 55.5346C26.435 55.286 26.4416 55.021 26.4546 54.7397C26.4677 54.4583 26.4873 54.1574 26.5135 53.8368C26.5271 53.667 26.5424 53.4902 26.5595 53.3064C26.6666 53.3027 26.7624 53.2767 26.8471 53.2283C26.9387 53.1759 27.0139 53.1105 27.0728 53.032C27.1382 52.947 27.1872 52.8521 27.2199 52.7474C27.2592 52.6427 27.2788 52.5413 27.2788 52.4432C27.2788 52.3319 27.269 52.224 27.2494 52.1193C27.2363 52.0081 27.2036 51.9099 27.1512 51.8249C27.1055 51.7333 27.0401 51.6613 26.955 51.609C26.9015 51.5719 26.8364 51.5465 26.7596 51.5328C26.7808 51.3466 26.8688 51.1986 27.0237 51.0888C27.1872 50.971 27.3933 50.9122 27.6418 50.9122C27.8642 50.9122 28.0735 50.9351 28.2697 50.9809C28.466 51.0267 28.6328 51.0888 28.7701 51.1673C28.914 51.2458 29.0252 51.3374 29.1037 51.4421C29.1887 51.5468 29.2312 51.658 29.2312 51.7758C29.2312 51.8936 29.2051 52.08 29.1528 52.3352C29.107 52.5838 29.0546 52.8717 28.9958 53.1988C28.9435 53.5194 28.8911 53.8695 28.8388 54.2489C28.793 54.6219 28.7701 54.9915 28.7701 55.3579Z" fill="#FFC700"></path>
  <path d="M16.6355 54.3036C16.6534 54.3806 16.6789 54.4507 16.712 54.5139C16.7738 54.6264 16.8646 54.6905 16.9844 54.7063C16.8973 54.5942 16.8033 54.4842 16.7022 54.3765C16.6802 54.3521 16.658 54.3278 16.6355 54.3036Z" fill="#FFC700"></path>
</svg>
